<?xml version="1.0" standalone="no"?>
<!DOCTYPE svg PUBLIC "-//W3C//DTD SVG 20010904//EN"
 "http://www.w3.org/TR/2001/REC-SVG-20010904/DTD/svg10.dtd">
<svg version="1.0" xmlns="http://www.w3.org/2000/svg"
 width="414.000000pt" height="512.000000pt" viewBox="0 0 414.000000 512.000000"
 preserveAspectRatio="xMidYMid meet">

<g transform="translate(0.000000,512.000000) scale(0.100000,-0.100000)"
fill="#000000" stroke="none">
<path d="M204 5109 c-55 -16 -127 -72 -159 -123 l-30 -49 -3 -2366 -2 -2366
25 -52 c28 -56 64 -91 129 -126 l41 -22 1865 0 1865 0 53 29 c59 33 108 88
128 144 11 30 13 352 14 1689 l0 1652 -82 88 c-46 49 -383 404 -750 789 -472
497 -676 705 -699 713 -40 14 -2347 14 -2395 0z m2188 -1003 c3 -693 3 -705
24 -733 11 -15 40 -38 64 -50 l44 -23 653 0 653 0 0 -1495 0 -1495 -1760 0
-1760 0 0 2250 0 2250 1040 0 1040 0 2 -704z m694 67 c208 -219 414 -435 458
-480 l80 -83 -462 0 -462 0 0 480 c0 264 2 480 4 480 2 0 174 -179 382 -397z"/>
<path d="M2010 2797 c-33 -16 -438 -482 -456 -524 -18 -42 -18 -67 3 -110 31
-65 116 -93 183 -58 15 8 64 56 107 106 l78 92 5 -329 c5 -299 7 -332 24 -360
26 -43 65 -64 120 -64 36 0 52 6 80 31 20 17 40 47 46 67 6 21 10 170 10 352
l1 315 87 -92 c96 -101 114 -113 167 -113 51 0 92 27 116 78 27 54 20 99 -24
150 -139 161 -414 455 -434 463 -34 13 -83 11 -113 -4z"/>
<path d="M1093 1681 c-75 -35 -78 -48 -78 -346 0 -289 1 -295 68 -335 31 -19
58 -20 987 -20 929 0 956 1 987 20 67 40 68 46 68 335 0 300 -3 312 -81 346
-57 26 -105 17 -148 -26 -42 -42 -46 -64 -46 -251 l0 -154 -779 0 -779 0 -4
178 c-3 151 -6 181 -21 204 -41 60 -108 79 -174 49z"/>
</g>
</svg>
