<?xml version="1.0" standalone="no"?>
<!DOCTYPE svg PUBLIC "-//W3C//DTD SVG 20010904//EN"
 "http://www.w3.org/TR/2001/REC-SVG-20010904/DTD/svg10.dtd">
<svg version="1.0" xmlns="http://www.w3.org/2000/svg"
 width="512.000000pt" height="512.000000pt" viewBox="0 0 512.000000 512.000000"
 preserveAspectRatio="xMidYMid meet">

<g transform="translate(0.000000,512.000000) scale(0.100000,-0.100000)"
fill="#000000" stroke="none">
<path d="M287 5109 c-106 -25 -201 -104 -251 -209 l-31 -65 -3 -1945 -2 -1944
470 -471 470 -470 1947 0 1948 0 65 31 c83 39 145 101 184 184 l31 65 0 2275
0 2275 -31 65 c-39 83 -101 145 -184 184 l-65 31 -2255 2 c-1289 0 -2271 -3
-2293 -8z m693 -1076 c0 -748 3 -888 15 -942 45 -189 205 -347 392 -386 101
-22 2155 -22 2256 0 187 39 347 198 392 386 12 54 15 194 15 942 l0 878 378
-3 379 -3 37 -29 c71 -54 66 136 66 -2316 0 -2452 5 -2262 -66 -2316 l-37 -29
-379 -3 -378 -3 0 728 c0 614 -3 738 -15 792 -44 185 -194 337 -382 386 -86
23 -2190 22 -2277 0 -96 -25 -167 -65 -239 -136 -74 -74 -129 -174 -147 -268
-6 -33 -10 -322 -10 -755 l0 -701 -385 385 -385 385 0 1878 c0 2000 -2 1916
46 1959 53 47 61 48 402 48 l322 0 0 -877z m2858 -15 l-3 -893 -27 -50 c-32
-60 -87 -114 -148 -146 l-45 -24 -1100 0 -1100 0 -51 27 c-28 15 -71 49 -96
76 -82 92 -78 39 -78 1028 l0 874 1325 0 1325 0 -2 -892z m-176 -2126 c60 -30
120 -90 150 -150 l23 -47 3 -742 2 -743 -1325 0 -1325 0 2 743 3 742 25 50
c32 66 99 129 163 154 51 20 71 20 1142 18 l1090 -2 47 -23z"/>
<path d="M1683 1472 c-50 -39 -53 -119 -7 -163 l26 -24 794 -3 c875 -3 847 -5
879 58 22 42 12 94 -22 126 l-26 24 -811 0 c-753 0 -813 -2 -833 -18z"/>
<path d="M1705 841 c-39 -16 -60 -51 -60 -98 0 -38 5 -49 33 -74 l32 -29 805
0 805 0 32 29 c28 25 33 36 33 75 0 36 -6 51 -28 73 l-27 28 -803 2 c-441 1
-811 -2 -822 -6z"/>
</g>
</svg>
