<?xml version="1.0" standalone="no"?>
<!DOCTYPE svg PUBLIC "-//W3C//DTD SVG 20010904//EN"
 "http://www.w3.org/TR/2001/REC-SVG-20010904/DTD/svg10.dtd">
<svg version="1.0" xmlns="http://www.w3.org/2000/svg"
 width="96.000000pt" height="96.000000pt" viewBox="0 0 96.000000 96.000000"
 preserveAspectRatio="xMidYMid meet">

<g transform="translate(0.000000,96.000000) scale(0.100000,-0.100000)"
fill="#000000" stroke="none">
<path d="M460 628 l0 -172 -44 43 c-41 40 -66 47 -66 18 0 -7 29 -42 65 -77
l65 -64 65 64 c36 35 65 70 65 77 0 29 -25 22 -66 -18 l-44 -43 0 172 c0 165
-1 172 -20 172 -19 0 -20 -7 -20 -172z"/>
<path d="M160 255 l0 -95 320 0 320 0 0 95 c0 88 -1 95 -20 95 -18 0 -20 -7
-20 -75 l0 -75 -280 0 -280 0 0 75 c0 68 -2 75 -20 75 -19 0 -20 -7 -20 -95z"/>
</g>
</svg>
