<?xml version="1.0" standalone="no"?>
<!DOCTYPE svg PUBLIC "-//W3C//DTD SVG 20010904//EN"
 "http://www.w3.org/TR/2001/REC-SVG-20010904/DTD/svg10.dtd">
<svg version="1.0" xmlns="http://www.w3.org/2000/svg"
 width="476.000000pt" height="512.000000pt" viewBox="0 0 476.000000 512.000000"
 preserveAspectRatio="xMidYMid meet">

<g transform="translate(0.000000,512.000000) scale(0.100000,-0.100000)"
fill="#000000" stroke="none">
<path d="M190 5111 c-74 -23 -127 -69 -159 -141 -20 -45 -21 -53 -21 -2205 0
-2152 1 -2160 21 -2205 25 -55 62 -95 114 -123 40 -22 40 -22 908 -25 l868 -2
-3 137 -3 138 -818 3 -817 2 2 2078 3 2077 972 3 972 2 3 -582 3 -583 24 -34
c45 -62 32 -61 671 -61 l580 0 0 -450 0 -450 140 0 140 0 0 548 c0 612 2 596
-71 637 -20 11 -310 287 -645 614 -335 326 -622 602 -639 612 -29 18 -71 19
-1125 18 -602 0 -1106 -4 -1120 -8z m2763 -889 c202 -189 367 -346 367 -348 0
-2 -182 -4 -405 -4 l-405 0 0 381 0 381 38 -33 c20 -18 202 -188 405 -377z"/>
<path d="M825 4175 c-34 -33 -34 -93 -1 -132 l24 -28 265 -3 c301 -4 338 1
363 50 21 40 11 91 -23 118 -25 19 -39 20 -315 20 l-289 0 -24 -25z"/>
<path d="M860 3533 c-63 -23 -83 -111 -35 -158 l24 -25 504 0 c490 0 505 1
530 20 32 25 43 72 27 111 -25 59 -22 59 -552 58 -266 0 -490 -3 -498 -6z"/>
<path d="M825 2845 c-36 -35 -35 -102 1 -136 l26 -24 811 -3 c564 -2 823 0
849 8 71 20 89 114 31 160 -25 20 -35 20 -860 20 l-834 0 -24 -25z"/>
<path d="M2684 2310 c-126 -19 -232 -98 -291 -218 l-38 -76 0 -855 0 -856 23
-58 c29 -70 112 -163 179 -199 91 -49 98 -49 1028 -46 l870 3 67 33 c86 42
153 109 192 192 l31 65 3 840 c2 816 2 842 -18 905 -34 113 -121 205 -237 252
l-58 23 -850 1 c-467 1 -873 -2 -901 -6z m1090 -585 c61 -29 66 -49 66 -283
l0 -210 136 -4 c135 -3 136 -3 160 -31 13 -15 24 -40 24 -56 0 -58 -24 -85
-446 -494 -164 -159 -150 -159 -337 16 -220 206 -383 369 -406 407 -21 34 -27
83 -15 115 13 34 59 45 184 45 l120 0 0 203 c0 307 0 307 293 307 148 0 196
-3 221 -15z"/>
<path d="M854 2200 c-56 -23 -73 -112 -29 -155 l24 -25 531 0 530 0 0 95 0 95
-517 -1 c-285 0 -528 -4 -539 -9z"/>
<path d="M825 1515 c-34 -33 -34 -93 -1 -132 l24 -28 531 -3 531 -3 0 96 0 95
-530 0 -531 0 -24 -25z"/>
</g>
</svg>
