<?xml version="1.0" standalone="no"?>
<!DOCTYPE svg PUBLIC "-//W3C//DTD SVG 20010904//EN"
 "http://www.w3.org/TR/2001/REC-SVG-20010904/DTD/svg10.dtd">
<svg version="1.0" xmlns="http://www.w3.org/2000/svg"
 width="398.000000pt" height="400.000000pt" viewBox="0 0 398.000000 400.000000"
 preserveAspectRatio="xMidYMid meet">

<g transform="translate(0.000000,400.000000) scale(0.100000,-0.100000)"
fill="#000000" stroke="none">
<path d="M125 3981 c-47 -22 -89 -64 -104 -104 -8 -20 -11 -596 -11 -1879 l0
-1852 21 -44 c13 -26 38 -54 62 -70 l41 -27 1440 -3 c793 -1 1456 0 1474 3 40
7 110 68 129 112 10 24 13 94 13 273 l0 240 293 0 c286 0 293 1 343 24 61 28
117 92 133 149 9 30 11 201 9 608 l-3 566 -30 49 c-19 30 -49 60 -79 79 l-49
30 -306 5 -306 5 -3 407 -2 408 -497 502 c-274 277 -509 511 -523 520 -23 17
-90 18 -1015 18 -942 0 -992 -1 -1030 -19z m1857 -603 c3 -334 6 -378 22 -422
25 -65 80 -118 152 -147 57 -23 68 -24 427 -27 l367 -3 -2 -317 -3 -317 -1175
-5 -1175 -5 -40 -22 c-51 -27 -79 -57 -104 -113 -20 -44 -21 -63 -21 -613 0
-626 -2 -607 63 -676 18 -18 55 -44 82 -57 l50 -24 1163 0 1162 0 0 -177 c0
-98 -4 -184 -8 -191 -7 -10 -283 -12 -1348 -10 l-1339 3 -3 1735 c-1 954 0
1741 3 1748 3 9 186 12 864 12 l860 0 3 -372z m614 -376 c-165 -1 -311 0 -323
3 -12 3 -32 15 -43 27 -19 21 -20 34 -20 347 l1 326 343 -350 344 -350 -302
-3z m-803 -1202 c77 -11 130 -35 169 -77 29 -30 58 -100 58 -139 0 -22 -4 -24
-44 -24 -23 0 -71 -3 -105 -6 -57 -6 -61 -6 -61 14 0 32 -46 79 -82 85 -57 8
-98 -16 -98 -58 0 -36 16 -46 120 -76 141 -41 191 -64 233 -107 95 -97 86
-265 -18 -361 -71 -65 -102 -75 -245 -76 -117 0 -129 2 -182 28 -41 20 -65 40
-88 74 -27 42 -60 128 -60 158 0 13 74 25 158 25 41 0 54 -4 58 -17 26 -81 61
-113 122 -113 39 0 87 23 96 45 23 60 -13 106 -100 130 -223 61 -303 131 -304
263 0 125 81 211 218 231 79 12 79 12 155 1z m876 -23 c62 -22 131 -82 166
-142 32 -54 55 -154 55 -241 0 -281 -147 -437 -399 -421 -121 7 -174 29 -242
96 -76 76 -100 140 -107 285 -7 165 23 267 103 349 96 99 273 130 424 74z
m-1389 -234 c-1 -353 -13 -425 -85 -498 -48 -47 -100 -68 -186 -73 -133 -8
-233 38 -278 127 -16 30 -41 124 -41 150 0 4 39 13 88 20 48 7 97 15 110 18
20 5 22 1 22 -32 0 -37 14 -74 34 -87 21 -15 63 -8 82 13 18 20 19 42 22 315
l3 294 114 0 115 0 0 -247z m2056 22 l134 -219 0 222 0 222 105 0 105 0 0
-405 0 -405 -104 0 -105 0 -133 220 -133 219 -3 -219 -2 -220 -105 0 -105 0 0
405 0 406 106 -3 107 -3 133 -220z"/>
<path d="M2475 1613 c-66 -18 -104 -82 -112 -187 -8 -106 11 -182 57 -228 34
-35 42 -38 93 -38 45 0 61 5 87 27 38 31 49 57 61 141 11 77 -3 187 -29 221
-39 53 -103 79 -157 64z"/>
</g>
</svg>
